<svg xmlns="http://www.w3.org/2000/svg" viewBox="0 0 640 293.28"><defs><style>.cls-1{fill:#14c8e3;}</style></defs><title>zola-login</title><g id="Layer_2" data-name="Layer 2"><g id="zola-login"><path class="cls-1" d="M619.78,104V91.15h-4.3V89.42h10.33v1.73H621.5V104Zm9.69-.28V91.59l3.67,12.11h1.53l3.69-11.92V103.7H640V89.46h-2.28l-3,9.91c-.3,1-.53,1.76-.66,2.29-.13-.48-.35-1.17-.63-2.12l-3-10.08h-2.53V103.7ZM0,293.26H226.38l-16.61-21.69-166.56.26,80.49-107-14.45-18.12ZM410.52,16.61V293.26h21.69V0Zm-112.73,90A93.35,93.35,0,0,0,208.43,173l16.34,19.62c6.95-36.85,35.29-64.22,73-64.22a71.55,71.55,0,0,1,0,143.1c-25.79,0-46.42-14.36-62.48-34.11L127.64,106.72c-36.77.11-127.41,0-127.41,0l16.35,21.57,102,.13,31.15,37.49c2.06,2.67,52.29,64.66,74.68,91.75a93.32,93.32,0,1,0,73.37-151Zm320.64,32.08c-17.22-19.9-43.83-31.79-73.73-31.79-51.92,0-94,41.71-94,93.18s42.08,93.18,94,93.18a94.08,94.08,0,0,0,54.62-17.37V249.36a74,74,0,0,1-54.62,24c-40.79,0-71.92-32.88-71.92-73.29s31.13-73.3,71.92-73.3c38.28,0,69.86,29,73.61,65.91v14.43c0,.21,0,.42,0,.63v50.3l0-.05v35.24H640V122.19Z"/></g></g></svg>